<svg xmlns="http://www.w3.org/2000/svg" viewBox="0 0 24 24" aria-hidden="true">
  <path d="M15.12,12.93A28.62,28.62,0,0,1,16.5,19a8.31,8.31,0,0,0,3.78-6.07,33.42,33.42,0,0,0-5.16,0m-1.18-3q.3.64.68,1.62a41.14,41.14,0,0,1,5.68-.08,8,8,0,0,0-2-4.83,9.9,9.9,0,0,1-4.4,3.29M10,4A21.23,21.23,0,0,1,13.22,8.5a10,10,0,0,0,4.1-2.9A8.13,8.13,0,0,0,10,4M6.9,18.58a8.15,8.15,0,0,0,8,1.2,29.32,29.32,0,0,0-1.56-6.61c-2.6.56-5.35,3.17-6.48,5.41M3.92,10a22.41,22.41,0,0,0,7.64-.86A20.22,20.22,0,0,0,8.22,4.6,8.48,8.48,0,0,0,3.92,10M5.76,17.5a12.15,12.15,0,0,1,7.1-5.71q-.3-.7-.58-1.26a25.11,25.11,0,0,1-8.6,1.08A8,8,0,0,0,5.76,17.5M2,12a10,10,0,0,1,20,0,9.93,9.93,0,0,1-5,8.65,10.06,10.06,0,0,1-10,0A9.93,9.93,0,0,1,2,12"/>
</svg>
