<svg xmlns="http://www.w3.org/2000/svg" width="1024" height="1024" viewBox="0 0 1024 1024">
  <path fill-rule="evenodd" d="M491.52,772.2 L491.52,932.04 L532,932.04 L532,772.2 L611.92,772.2 L611.92,932.04 L651.72,932.04 L651.72,972 L411.6,972 L411.6,772.2 L491.52,772.2 Z M331.68,452.16 L371.8,452.16 L371.8,252 L411.6,252 L411.6,92.16 L651.72,92.16 L651.72,412.2 L611.92,412.2 L611.92,452.16 L651.72,452.16 L651.72,651.96 L611.92,651.96 L611.92,772.2 L532,772.2 L532,731.88 L491.52,731.88 L491.52,772.2 L411.6,772.2 L411.6,651.96 L371.8,651.96 L371.8,612 L331.68,612 L331.68,452.16 Z M691.88,492.12 L691.88,651.96 L651.76,651.96 L651.76,492.12 L691.88,492.12 Z M691.88,252 L691.88,331.92 L651.76,331.92 L651.76,252 L691.88,252 Z M731.68,172.08 L731.68,212.04 L651.76,212.04 L651.76,172.08 L731.68,172.08 Z M651.72,52.2 L651.72,92.16 L451.72,92.16 L451.72,52.2 L651.72,52.2 Z"/>
</svg>
