<svg xmlns="http://www.w3.org/2000/svg" width="64" height="64" viewBox="0 0 64 64"><title>avatar</title><path d="M0,0H64V64H0V0Z" fill="#00a1d7"/><path d="M40,15h2v2H40V15Z" fill="#383a86"/><path d="M38,37h2v2H38V37Z" fill="#eaac82"/><path d="M38,35h2v2H38V35Zm0-2h2v2H38V33Z" fill="#e9bf99"/><path d="M38,31h2v2H38V31Z" fill="#a31725"/><path d="M38,21h2v2H38V21Zm0-2h2v2H38V19Z" fill="#231f20"/><path d="M38,15h2v2H38V15Z" fill="#383a86"/><path d="M36,53h2v2H36V53Z" fill="#fff"/><path d="M36,37h2v2H36V37Z" fill="#e9bf99"/><path d="M36,35h2v2H36V35Z" fill="#eaac82"/><path d="M36,33h2v2H36V33Z" fill="#a31725"/><path d="M36,31h2v2H36V31Z" fill="#bf2026"/><path d="M36,29h2v2H36V29Z" fill="#a31725"/><path d="M36,25h2v2H36V25Zm0-2h2v2H36V23Z" fill="#e9bf99"/><path d="M36,21h2v2H36V21Zm0-2h2v2H36V19Z" fill="#231f20"/><path d="M36,17h2v2H36V17Z" fill="#e9bf99"/><path d="M36,15h2v2H36V15Z" fill="#383a86"/><path d="M36,13h2v2H36V13Zm0-2h2v2H36V11Zm0-2h2v2H36V9Z" fill="#4e5496"/><path d="M34,53h2v2H34V53Zm0-2h2v2H34V51Z" fill="#231f20"/><path d="M34,49h2v2H34V49Z" fill="#2b398f"/><path d="M34,47h2v2H34V47Z" fill="#122974"/><path d="M34,45h2v2H34V45Z" fill="#eaac82"/><path d="M34,43h2v2H34V43Zm0-2h2v2H34V41Zm0-2h2v2H34V39Z" fill="#2b398f"/><path d="M34,37h2v2H34V37Z" fill="#c21b1b"/><path d="M34,35h2v2H34V35Zm0-2h2v2H34V33Zm0-2h2v2H34V31Zm0-2h2v2H34V29Z" fill="#ce202a"/><path d="M34,27h2v2H34V27Z" fill="#eaac82"/><path d="M34,25h2v2H34V25Zm0-2h2v2H34V23Zm0-2h2v2H34V21Z" fill="#e9bf99"/><path d="M34,19h2v2H34V19Z" fill="#231f20"/><path d="M34,17h2v2H34V17Z" fill="#e9bf99"/><path d="M34,15h2v2H34V15Z" fill="#383a86"/><path d="M34,13h2v2H34V13Zm0-2h2v2H34V11Zm0-2h2v2H34V9Z" fill="#4e5496"/><path d="M32,53h2v2H32V53Z" fill="#231f20"/><path d="M32,51h2v2H32V51Z" fill="#58595b"/><path d="M32,49h2v2H32V49Zm0-2h2v2H32V47Zm0-2h2v2H32V45Zm0-2h2v2H32V43Z" fill="#1b367a"/><path d="M32,41h2v2H32V41Zm0-2h2v2H32V39Z" fill="#2b398f"/><path d="M32,37h2v2H32V37Z" fill="#c21b1b"/><path d="M32,35h2v2H32V35Z" fill="#ec2324"/><path d="M32,33h2v2H32V33Z" fill="#c21b1b"/><path d="M32,31h2v2H32V31Z" fill="#ec2324"/><path d="M32,29h2v2H32V29Z" fill="#eaac82"/><path d="M32,27h2v2H32V27Zm0-2h2v2H32V25Zm0-2h2v2H32V23Z" fill="#e9bf99"/><path d="M32,21h2v2H32V21Zm0-2h2v2H32V19Z" fill="#231f20"/><path d="M32,17h2v2H32V17Z" fill="#e9bf99"/><path d="M32,15h2v2H32V15Z" fill="#383a86"/><path d="M32,13h2v2H32V13Zm0-2h2v2H32V11Z" fill="#4e5496"/><path d="M32,9h2v2H32V9Z" fill="#383a86"/><path d="M30,53h2v2H30V53Z" fill="#fff"/><path d="M30,41h2v2H30V41Z" fill="#2b398f"/><path d="M30,39h2v2H30V39Z" fill="#1b367a"/><path d="M30,37h2v2H30V37Z" fill="#c21b1b"/><path d="M30,35h2v2H30V35Z" fill="#ce202a"/><path d="M30,33h2v2H30V33Z" fill="#c21b1b"/><path d="M30,31h2v2H30V31Z" fill="#ce202a"/><path d="M30,29h2v2H30V29Zm0-2h2v2H30V27Zm0-2h2v2H30V25Zm0-2h2v2H30V23Z" fill="#e9bf99"/><path d="M30,21h2v2H30V21Zm0-2h2v2H30V19Z" fill="#231f20"/><path d="M30,17h2v2H30V17Z" fill="#e9bf99"/><path d="M30,15h2v2H30V15Z" fill="#2a2670"/><path d="M30,13h2v2H30V13Zm0-2h2v2H30V11Zm0-2h2v2H30V9Z" fill="#383a86"/><path d="M28,53h2v2H28V53Zm0-2h2v2H28V51Z" fill="#231f20"/><path d="M28,49h2v2H28V49Zm0-2h2v2H28V47Z" fill="#1b367a"/><path d="M28,45h2v2H28V45Z" fill="#eaac82"/><path d="M28,43h2v2H28V43Zm0-2h2v2H28V41Z" fill="#1b367a"/><path d="M28,39h2v2H28V39Z" fill="#122974"/><path d="M28,37h2v2H28V37Z" fill="#c21b1b"/><path d="M28,35h2v2H28V35Zm0-2h2v2H28V33Zm0-2h2v2H28V31Z" fill="#bf2026"/><path d="M28,29h2v2H28V29Z" fill="#c21b1b"/><path d="M28,27h2v2H28V27Zm0-2h2v2H28V25Z" fill="#eaac82"/><path d="M28,23h2v2H28V23Z" fill="#e9bf99"/><path d="M28,21h2v2H28V21Z" fill="#3f1c04"/><path d="M28,19h2v2H28V19Zm0-2h2v2H28V17Z" fill="#452724"/><path d="M28,15h2v2H28V15Z" fill="#2a2670"/><path d="M28,13h2v2H28V13Z" fill="#383a86"/><path d="M28,11h2v2H28V11Zm0-2h2v2H28V9Z" fill="#2a2670"/><path d="M26,53h2v2H26V53Z" fill="#231f20"/><path d="M26,51h2v2H26V51Z" fill="#58595b"/><path d="M26,49h2v2H26V49Zm0-2h2v2H26V47Zm0-2h2v2H26V45Zm0-2h2v2H26V43Zm0-2h2v2H26V41Zm0-2h2v2H26V39Z" fill="#122974"/><path d="M26,37h2v2H26V37Z" fill="#e9bf99"/><path d="M26,35h2v2H26V35Z" fill="#eaac82"/><path d="M26,33h2v2H26V33Z" fill="#a31725"/><path d="M26,31h2v2H26V31Z" fill="#c21b1b"/><path d="M26,29h2v2H26V29Z" fill="#ec2324"/><path d="M26,27h2v2H26V27Zm0-2h2v2H26V25Z" fill="#3f1c04"/><path d="M26,23h2v2H26V23Zm0-2h2v2H26V21Z" fill="#e9bf99"/><path d="M26,19h2v2H26V19Z" fill="#3f1c04"/><path d="M26,17h2v2H26V17Z" fill="#452724"/><path d="M26,15h2v2H26V15Zm0-2h2v2H26V13Zm0-2h2v2H26V11Z" fill="#2a2670"/><path d="M24,37h2v2H24V37Z" fill="#eaac82"/><path d="M24,35h2v2H24V35Z" fill="#e9bf99"/><path d="M24,33h2v2H24V33Z" fill="#c21b1b"/><path d="M24,31h2v2H24V31Z" fill="#ec2324"/><path d="M24,29h2v2H24V29Z" fill="#c21b1b"/><path d="M24,27h2v2H24V27Z" fill="#341404"/><path d="M24,25h2v2H24V25Zm0-2h2v2H24V23Zm0-2h2v2H24V21Zm0-2h2v2H24V19Z" fill="#3f1c04"/><path d="M22,35h2v2H22V35Zm0-2h2v2H22V33Z" fill="#eaac82"/><path d="M22,31h2v2H22V31Z" fill="#c21b1b"/><path d="M22,29h2v2H22V29Z" fill="#a31725"/></svg>