<svg baseProfile="basic" xmlns="http://www.w3.org/2000/svg" width="28" height="28" viewBox="0 0 28 28"><path fill="#00A1D7" d="M0 0h28v28h-28z"/><g><path fill="#383A86" d="M18 6h1v1h-1z"/><path fill="#EAAC82" d="M17 17h1v1h-1z"/><path fill="#E9BF99" d="M17 16h1v1h-1zM17 15h1v1h-1z"/><path fill="#A31725" d="M17 14h1v1h-1z"/><path fill="#231F20" d="M17 9h1v1h-1zM17 8h1v1h-1z"/><path fill="#383A86" d="M17 6h1v1h-1z"/><path fill="#fff" d="M16 25h1v1h-1z"/><path fill="#E9BF99" d="M16 17h1v1h-1z"/><path fill="#EAAC82" d="M16 16h1v1h-1z"/><path fill="#A31725" d="M16 15h1v1h-1z"/><path fill="#BF2026" d="M16 14h1v1h-1z"/><path fill="#A31725" d="M16 13h1v1h-1z"/><path fill="#E9BF99" d="M16 11h1v1h-1zM16 10h1v1h-1z"/><path fill="#231F20" d="M16 9h1v1h-1zM16 8h1v1h-1z"/><path fill="#E9BF99" d="M16 7h1v1h-1z"/><path fill="#383A86" d="M16 6h1v1h-1z"/><path fill="#4E5496" d="M16 5h1v1h-1zM16 4h1v1h-1zM16 3h1v1h-1z"/><path fill="#231F20" d="M15 25h1v1h-1zM15 24h1v1h-1z"/><path fill="#2B398F" d="M15 23h1v1h-1z"/><path fill="#122974" d="M15 22h1v1h-1z"/><path fill="#EAAC82" d="M15 21h1v1h-1z"/><path fill="#2B398F" d="M15 20h1v1h-1zM15 19h1v1h-1zM15 18h1v1h-1z"/><path fill="#C21B1B" d="M15 17h1v1h-1z"/><path fill="#CE202A" d="M15 16h1v1h-1zM15 15h1v1h-1zM15 14h1v1h-1zM15 13h1v1h-1z"/><path fill="#EAAC82" d="M15 12h1v1h-1z"/><path fill="#E9BF99" d="M15 11h1v1h-1zM15 10h1v1h-1zM15 9h1v1h-1z"/><path fill="#231F20" d="M15 8h1v1h-1z"/><path fill="#E9BF99" d="M15 7h1v1h-1z"/><path fill="#383A86" d="M15 6h1v1h-1z"/><path fill="#4E5496" d="M15 5h1v1h-1zM15 4h1v1h-1zM15 3h1v1h-1z"/><path fill="#231F20" d="M14 25h1v1h-1z"/><path fill="#58595B" d="M14 24h1v1h-1z"/><path fill="#1B367A" d="M14 23h1v1h-1zM14 22h1v1h-1zM14 21h1v1h-1zM14 20h1v1h-1z"/><path fill="#2B398F" d="M14 19h1v1h-1zM14 18h1v1h-1z"/><path fill="#C21B1B" d="M14 17h1v1h-1z"/><path fill="#EC2324" d="M14 16h1v1h-1z"/><path fill="#C21B1B" d="M14 15h1v1h-1z"/><path fill="#EC2324" d="M14 14h1v1h-1z"/><path fill="#EAAC82" d="M14 13h1v1h-1z"/><path fill="#E9BF99" d="M14 12h1v1h-1zM14 11h1v1h-1zM14 10h1v1h-1z"/><path fill="#231F20" d="M14 9h1v1h-1zM14 8h1v1h-1z"/><path fill="#E9BF99" d="M14 7h1v1h-1z"/><path fill="#383A86" d="M14 6h1v1h-1z"/><path fill="#4E5496" d="M14 5h1v1h-1zM14 4h1v1h-1z"/><path fill="#383A86" d="M14 3h1v1h-1z"/><path fill="#fff" d="M13 25h1v1h-1z"/><path fill="#2B398F" d="M13 19h1v1h-1z"/><path fill="#1B367A" d="M13 18h1v1h-1z"/><path fill="#C21B1B" d="M13 17h1v1h-1z"/><path fill="#CE202A" d="M13 16h1v1h-1z"/><path fill="#C21B1B" d="M13 15h1v1h-1z"/><path fill="#CE202A" d="M13 14h1v1h-1z"/><path fill="#E9BF99" d="M13 13h1v1h-1zM13 12h1v1h-1zM13 11h1v1h-1zM13 10h1v1h-1z"/><path fill="#231F20" d="M13 9h1v1h-1zM13 8h1v1h-1z"/><path fill="#E9BF99" d="M13 7h1v1h-1z"/><path fill="#2A2670" d="M13 6h1v1h-1z"/><path fill="#383A86" d="M13 5h1v1h-1zM13 4h1v1h-1zM13 3h1v1h-1z"/><path fill="#231F20" d="M12 25h1v1h-1zM12 24h1v1h-1z"/><path fill="#1B367A" d="M12 23h1v1h-1zM12 22h1v1h-1z"/><path fill="#EAAC82" d="M12 21h1v1h-1z"/><path fill="#1B367A" d="M12 20h1v1h-1zM12 19h1v1h-1z"/><path fill="#122974" d="M12 18h1v1h-1z"/><path fill="#C21B1B" d="M12 17h1v1h-1z"/><path fill="#BF2026" d="M12 16h1v1h-1zM12 15h1v1h-1zM12 14h1v1h-1z"/><path fill="#C21B1B" d="M12 13h1v1h-1z"/><path fill="#EAAC82" d="M12 12h1v1h-1zM12 11h1v1h-1z"/><path fill="#E9BF99" d="M12 10h1v1h-1z"/><path fill="#3F1C04" d="M12 9h1v1h-1z"/><path fill="#452724" d="M12 8h1v1h-1zM12 7h1v1h-1z"/><path fill="#2A2670" d="M12 6h1v1h-1z"/><path fill="#383A86" d="M12 5h1v1h-1z"/><path fill="#2A2670" d="M12 4h1v1h-1zM12 3h1v1h-1z"/><path fill="#231F20" d="M11 25h1v1h-1z"/><path fill="#58595B" d="M11 24h1v1h-1z"/><path fill="#122974" d="M11 23h1v1h-1zM11 22h1v1h-1zM11 21h1v1h-1zM11 20h1v1h-1zM11 19h1v1h-1zM11 18h1v1h-1z"/><path fill="#E9BF99" d="M11 17h1v1h-1z"/><path fill="#EAAC82" d="M11 16h1v1h-1z"/><path fill="#A31725" d="M11 15h1v1h-1z"/><path fill="#C21B1B" d="M11 14h1v1h-1z"/><path fill="#EC2324" d="M11 13h1v1h-1z"/><path fill="#3F1C04" d="M11 12h1v1h-1zM11 11h1v1h-1z"/><path fill="#E9BF99" d="M11 10h1v1h-1zM11 9h1v1h-1z"/><path fill="#3F1C04" d="M11 8h1v1h-1z"/><path fill="#452724" d="M11 7h1v1h-1z"/><path fill="#2A2670" d="M11 6h1v1h-1zM11 5h1v1h-1zM11 4h1v1h-1z"/><path fill="#EAAC82" d="M10 17h1v1h-1z"/><path fill="#E9BF99" d="M10 16h1v1h-1z"/><path fill="#C21B1B" d="M10 15h1v1h-1z"/><path fill="#EC2324" d="M10 14h1v1h-1z"/><path fill="#C21B1B" d="M10 13h1v1h-1z"/><path fill="#341404" d="M10 12h1v1h-1z"/><path fill="#3F1C04" d="M10 11h1v1h-1zM10 10h1v1h-1zM10 9h1v1h-1zM10 8h1v1h-1z"/><path fill="#EAAC82" d="M9 16h1v1h-1zM9 15h1v1h-1z"/><path fill="#C21B1B" d="M9 14h1v1h-1z"/><path fill="#A31725" d="M9 13h1v1h-1z"/></g></svg>