<svg id="Layer_1" data-name="Layer 1" xmlns="http://www.w3.org/2000/svg" width="64" height="64" viewBox="0 0 64 64">
  <title>sible</title>
  <path d="M32,0A32,32,0,1,0,64,32,32,32,0,0,0,32,0ZM48.83,48.83A13.9,13.9,0,0,1,39,52.62a13.9,13.9,0,0,1-9.83-3.79,4,4,0,0,1,5.66-5.66c1.8,1.8,6.54,1.8,8.34,0s1.91-6.43,0-8.34-6.54-1.8-8.34,0A13.9,13.9,0,0,1,25,38.62a13.9,13.9,0,0,1-9.83-3.79c-5.05-5.05-5.05-14.61,0-19.66s14.6-5.05,19.66,0a4,4,0,0,1-5.66,5.66c-1.8-1.8-6.54-1.8-8.34,0s-1.91,6.43,0,8.34,6.54,1.8,8.34,0c5.05-5.05,14.6-5.05,19.66,0S53.88,43.78,48.83,48.83Z"/>
</svg>
