<?xml version="1.0" encoding="utf-8"?>
<!-- Generator: Adobe Illustrator 18.1.0, SVG Export Plug-In . SVG Version: 6.00 Build 0)  -->
<svg version="1.1" id="Layer_1" xmlns="http://www.w3.org/2000/svg" xmlns:xlink="http://www.w3.org/1999/xlink" x="0px" y="0px"
	 viewBox="0 0 10 23" enable-background="new 0 0 10 23" xml:space="preserve">
<g>
	<g id="XMLID_4_">
		<g>
			<rect x="7" y="22" fill="#FFFFFF" width="1" height="1"/>
			<rect x="3" y="22" fill="#231F20" width="1" height="1"/>
			<rect x="5" y="14" fill="#C21B1B" width="1" height="1"/>
			<rect x="5" y="0" fill="#383A86" width="1" height="1"/>
			<rect x="5" y="18" fill="#1B367A" width="1" height="1"/>
			<rect x="4" y="7" fill="#E9BF99" width="1" height="1"/>
			<rect x="6" y="4" fill="#E9BF99" width="1" height="1"/>
			<rect x="2" y="1" fill="#2A2670" width="1" height="1"/>
			<rect x="4" y="12" fill="#C21B1B" width="1" height="1"/>
			<rect x="3" y="18" fill="#EAAC82" width="1" height="1"/>
			<rect x="3" y="0" fill="#2A2670" width="1" height="1"/>
			<rect x="7" y="0" fill="#4E5496" width="1" height="1"/>
			<rect x="7" y="14" fill="#E9BF99" width="1" height="1"/>
			<rect x="3" y="14" fill="#C21B1B" width="1" height="1"/>
			<rect x="5" y="22" fill="#231F20" width="1" height="1"/>
			<rect x="4" y="5" fill="#231F20" width="1" height="1"/>
			<rect x="4" y="9" fill="#E9BF99" width="1" height="1"/>
			<rect x="6" y="13" fill="#CE202A" width="1" height="1"/>
			<rect x="6" y="2" fill="#4E5496" width="1" height="1"/>
			<rect x="8" y="11" fill="#A31725" width="1" height="1"/>
			<rect x="8" y="3" fill="#383A86" width="1" height="1"/>
			<rect x="0" y="12" fill="#EAAC82" width="1" height="1"/>
			<rect x="2" y="11" fill="#C21B1B" width="1" height="1"/>
			<rect x="2" y="3" fill="#2A2670" width="1" height="1"/>
			<rect x="1" y="12" fill="#C21B1B" width="1" height="1"/>
			<rect x="5" y="6" fill="#231F20" width="1" height="1"/>
			<rect x="6" y="8" fill="#E9BF99" width="1" height="1"/>
			<rect x="6" y="17" fill="#2B398F" width="1" height="1"/>
			<rect x="5" y="10" fill="#EAAC82" width="1" height="1"/>
			<rect x="1" y="5" fill="#3F1C04" width="1" height="1"/>
			<rect x="1" y="9" fill="#341404" width="1" height="1"/>
			<rect x="2" y="15" fill="#122974" width="1" height="1"/>
			<rect x="3" y="10" fill="#C21B1B" width="1" height="1"/>
			<rect x="7" y="10" fill="#A31725" width="1" height="1"/>
			<rect x="4" y="16" fill="#2B398F" width="1" height="1"/>
			<rect x="6" y="21" fill="#231F20" width="1" height="1"/>
			<rect x="7" y="6" fill="#231F20" width="1" height="1"/>
			<rect x="3" y="6" fill="#3F1C04" width="1" height="1"/>
			<rect x="2" y="19" fill="#122974" width="1" height="1"/>
			<rect x="1" y="7" fill="#3F1C04" width="1" height="1"/>
			<rect x="4" y="1" fill="#383A86" width="1" height="1"/>
			<rect x="6" y="6" fill="#E9BF99" width="1" height="1"/>
			<rect x="3" y="21" fill="#231F20" width="1" height="1"/>
			<rect x="2" y="7" fill="#E9BF99" width="1" height="1"/>
			<rect x="5" y="8" fill="#E9BF99" width="1" height="1"/>
			<rect x="5" y="17" fill="#1B367A" width="1" height="1"/>
			<rect x="6" y="10" fill="#CE202A" width="1" height="1"/>
			<rect x="8" y="5" fill="#231F20" width="1" height="1"/>
			<rect x="4" y="11" fill="#CE202A" width="1" height="1"/>
			<rect x="4" y="3" fill="#2A2670" width="1" height="1"/>
			<rect x="3" y="17" fill="#1B367A" width="1" height="1"/>
			<rect x="3" y="8" fill="#EAAC82" width="1" height="1"/>
			<rect x="7" y="8" fill="#E9BF99" width="1" height="1"/>
			<rect x="2" y="5" fill="#3F1C04" width="1" height="1"/>
			<rect x="2" y="9" fill="#3F1C04" width="1" height="1"/>
			<rect x="0" y="11" fill="#C21B1B" width="1" height="1"/>
			<rect x="2" y="12" fill="#A31725" width="1" height="1"/>
			<rect x="5" y="21" fill="#58595B" width="1" height="1"/>
			<rect x="8" y="12" fill="#E9BF99" width="1" height="1"/>
			<rect x="7" y="13" fill="#EAAC82" width="1" height="1"/>
			<rect x="7" y="2" fill="#4E5496" width="1" height="1"/>
			<rect x="3" y="2" fill="#383A86" width="1" height="1"/>
			<rect x="3" y="13" fill="#BF2026" width="1" height="1"/>
			<rect x="6" y="14" fill="#C21B1B" width="1" height="1"/>
			<rect x="1" y="11" fill="#EC2324" width="1" height="1"/>
			<rect x="6" y="0" fill="#4E5496" width="1" height="1"/>
			<rect x="6" y="18" fill="#EAAC82" width="1" height="1"/>
			<rect x="5" y="4" fill="#E9BF99" width="1" height="1"/>
			<rect x="3" y="4" fill="#452724" width="1" height="1"/>
			<rect x="7" y="4" fill="#E9BF99" width="1" height="1"/>
			<rect x="2" y="16" fill="#122974" width="1" height="1"/>
			<rect x="2" y="20" fill="#122974" width="1" height="1"/>
			<rect x="9" y="3" fill="#383A86" width="1" height="1"/>
			<rect x="4" y="15" fill="#1B367A" width="1" height="1"/>
			<rect x="6" y="22" fill="#231F20" width="1" height="1"/>
			<rect x="5" y="13" fill="#EC2324" width="1" height="1"/>
			<rect x="5" y="2" fill="#4E5496" width="1" height="1"/>
			<rect x="5" y="20" fill="#1B367A" width="1" height="1"/>
			<rect x="8" y="13" fill="#E9BF99" width="1" height="1"/>
			<rect x="6" y="11" fill="#CE202A" width="1" height="1"/>
			<rect x="6" y="3" fill="#383A86" width="1" height="1"/>
			<rect x="1" y="14" fill="#EAAC82" width="1" height="1"/>
			<rect x="2" y="13" fill="#EAAC82" width="1" height="1"/>
			<rect x="2" y="2" fill="#2A2670" width="1" height="1"/>
			<rect x="5" y="16" fill="#2B398F" width="1" height="1"/>
			<rect x="3" y="16" fill="#1B367A" width="1" height="1"/>
			<rect x="6" y="1" fill="#4E5496" width="1" height="1"/>
			<rect x="4" y="6" fill="#231F20" width="1" height="1"/>
			<rect x="0" y="10" fill="#A31725" width="1" height="1"/>
			<rect x="2" y="4" fill="#452724" width="1" height="1"/>
			<rect x="4" y="10" fill="#E9BF99" width="1" height="1"/>
			<rect x="3" y="20" fill="#1B367A" width="1" height="1"/>
			<rect x="6" y="19" fill="#122974" width="1" height="1"/>
			<rect x="5" y="12" fill="#C21B1B" width="1" height="1"/>
			<rect x="3" y="7" fill="#E9BF99" width="1" height="1"/>
			<rect x="7" y="7" fill="#E9BF99" width="1" height="1"/>
			<rect x="2" y="21" fill="#58595B" width="1" height="1"/>
			<rect x="1" y="6" fill="#3F1C04" width="1" height="1"/>
			<rect x="1" y="10" fill="#C21B1B" width="1" height="1"/>
			<rect x="5" y="5" fill="#231F20" width="1" height="1"/>
			<rect x="5" y="9" fill="#E9BF99" width="1" height="1"/>
			<rect x="6" y="15" fill="#2B398F" width="1" height="1"/>
			<rect x="4" y="22" fill="#FFFFFF" width="1" height="1"/>
			<rect x="4" y="14" fill="#C21B1B" width="1" height="1"/>
			<rect x="7" y="5" fill="#231F20" width="1" height="1"/>
			<rect x="3" y="5" fill="#452724" width="1" height="1"/>
			<rect x="3" y="9" fill="#EAAC82" width="1" height="1"/>
			<rect x="2" y="8" fill="#3F1C04" width="1" height="1"/>
			<rect x="2" y="17" fill="#122974" width="1" height="1"/>
			<rect x="5" y="7" fill="#E9BF99" width="1" height="1"/>
			<rect x="3" y="12" fill="#BF2026" width="1" height="1"/>
			<rect x="7" y="12" fill="#A31725" width="1" height="1"/>
			<rect x="4" y="0" fill="#383A86" width="1" height="1"/>
			<rect x="0" y="13" fill="#EAAC82" width="1" height="1"/>
			<rect x="5" y="19" fill="#1B367A" width="1" height="1"/>
			<rect x="6" y="12" fill="#CE202A" width="1" height="1"/>
			<rect x="6" y="9" fill="#EAAC82" width="1" height="1"/>
			<rect x="6" y="5" fill="#231F20" width="1" height="1"/>
			<rect x="4" y="13" fill="#CE202A" width="1" height="1"/>
			<rect x="4" y="2" fill="#383A86" width="1" height="1"/>
			<rect x="5" y="15" fill="#2B398F" width="1" height="1"/>
			<rect x="1" y="8" fill="#3F1C04" width="1" height="1"/>
			<rect x="2" y="10" fill="#EC2324" width="1" height="1"/>
			<rect x="3" y="15" fill="#122974" width="1" height="1"/>
			<rect x="8" y="6" fill="#231F20" width="1" height="1"/>
			<rect x="6" y="7" fill="#E9BF99" width="1" height="1"/>
			<rect x="4" y="4" fill="#E9BF99" width="1" height="1"/>
			<rect x="3" y="19" fill="#1B367A" width="1" height="1"/>
			<rect x="2" y="6" fill="#E9BF99" width="1" height="1"/>
			<rect x="2" y="22" fill="#231F20" width="1" height="1"/>
			<rect x="6" y="20" fill="#2B398F" width="1" height="1"/>
			<rect x="5" y="11" fill="#EC2324" width="1" height="1"/>
			<rect x="5" y="3" fill="#383A86" width="1" height="1"/>
			<rect x="7" y="1" fill="#4E5496" width="1" height="1"/>
			<rect x="3" y="1" fill="#2A2670" width="1" height="1"/>
			<rect x="6" y="16" fill="#2B398F" width="1" height="1"/>
			<rect x="2" y="18" fill="#122974" width="1" height="1"/>
			<rect x="5" y="1" fill="#4E5496" width="1" height="1"/>
			<rect x="3" y="3" fill="#2A2670" width="1" height="1"/>
			<rect x="3" y="11" fill="#BF2026" width="1" height="1"/>
			<rect x="7" y="11" fill="#BF2026" width="1" height="1"/>
			<rect x="7" y="3" fill="#383A86" width="1" height="1"/>
			<rect x="8" y="14" fill="#EAAC82" width="1" height="1"/>
			<rect x="4" y="8" fill="#E9BF99" width="1" height="1"/>
			<rect x="1" y="13" fill="#E9BF99" width="1" height="1"/>
			<rect x="2" y="14" fill="#E9BF99" width="1" height="1"/>
		</g>
		<g>
		</g>
	</g>
</g>
</svg>
