<svg xmlns="http://www.w3.org/2000/svg" viewBox="0 0 24 28" enable-background="new 0 0 24 28"><g><path fill="none" d="M23 6h1v1h-1z"/><path fill="#fff" d="M20 24h1v1h-1zM20 23h1v1h-1z"/><path fill="#D6A783" d="M20 7h1v1h-1zM20 6h1v1h-1z"/><path fill="#fff" d="M19 25h1v1h-1z"/><path d="M19 24h1v1h-1zM19 23h1v1h-1z"/><path fill="#D6A783" d="M19 10h1v1h-1z"/><path fill="#EAAC82" d="M19 9h1v1h-1z"/><path fill="#E9BF99" d="M19 8h1v1h-1zM19 7h1v1h-1zM19 6h1v1h-1z"/><path fill="#D6A783" d="M19 5h1v1h-1z"/><path fill="#fff" d="M18 26h1v1h-1z"/><path d="M18 25h1v1h-1zM18 24h1v1h-1z"/><path fill="#D6A783" d="M18 11h1v1h-1z"/><path fill="#EAAC82" d="M18 10h1v1h-1z"/><path fill="#E9BF99" d="M18 9h1v1h-1zM18 8h1v1h-1zM18 7h1v1h-1z"/><path fill="#EAAC82" d="M18 6h1v1h-1z"/><path fill="#fff" d="M17 27h1v1h-1z"/><path d="M17 26h1v1h-1zM17 25h1v1h-1zM17 24h1v1h-1z"/><path fill="#1B367A" d="M17 23h1v1h-1z"/><path fill="#A31725" d="M17 12h1v1h-1zM17 11h1v1h-1z"/><path fill="#D6A783" d="M17 10h1v1h-1zM17 9h1v1h-1z"/><path d="M16 25h1v1h-1z"/><path fill="#1B367A" d="M16 24h1v1h-1z"/><path fill="#2B398F" d="M16 23h1v1h-1z"/><path fill="#30419D" d="M16 22h1v1h-1z"/><path fill="#A31725" d="M16 13h1v1h-1z"/><path fill="#C21B1B" d="M16 12h1v1h-1z"/><path fill="#A31725" d="M16 11h1v1h-1zM16 10h1v1h-1z"/><path fill="#122974" d="M15 24h1v1h-1z"/><path fill="#1B367A" d="M15 23h1v1h-1z"/><path fill="#2B398F" d="M15 22h1v1h-1z"/><path fill="#30419D" d="M15 21h1v1h-1z"/><path fill="#A31725" d="M15 13h1v1h-1z"/><path fill="#EC2324" d="M15 12h1v1h-1z"/><path fill="#A31725" d="M15 11h1v1h-1z"/><path fill="#D6A783" d="M15 8h1v1h-1zM15 7h1v1h-1z"/><path fill="#341404" d="M15 2h1v1h-1z"/><path fill="#122974" d="M14 23h1v1h-1z"/><path fill="#2B398F" d="M14 22h1v1h-1zM14 21h1v1h-1z"/><path fill="#30419D" d="M14 20h1v1h-1z"/><path fill="#A31725" d="M14 14h1v1h-1z"/><path fill="#CE202A" d="M14 13h1v1h-1z"/><path fill="#C21B1B" d="M14 12h1v1h-1z"/><path fill="#A31725" d="M14 11h1v1h-1z"/><path fill="#EAAC82" d="M14 9h1v1h-1z"/><path fill="#E9BF99" d="M14 8h1v1h-1zM14 7h1v1h-1z"/><path fill="#D6A783" d="M14 6h1v1h-1zM14 5h1v1h-1zM14 4h1v1h-1z"/><path fill="#341404" d="M14 3h1v1h-1z"/><path fill="#452724" d="M14 2h1v1h-1z"/><path fill="#341404" d="M14 1h1v1h-1z"/><path fill="#1B367A" d="M13 22h1v1h-1z"/><path fill="#2B398F" d="M13 21h1v1h-1zM13 20h1v1h-1z"/><path fill="#1B367A" d="M13 19h1v1h-1z"/><path fill="#A31725" d="M13 18h1v1h-1zM13 17h1v1h-1zM13 16h1v1h-1zM13 15h1v1h-1zM13 14h1v1h-1z"/><path fill="#C21B1B" d="M13 13h1v1h-1z"/><path fill="#A31725" d="M13 12h1v1h-1z"/><path fill="#D6A783" d="M13 10h1v1h-1z"/><path fill="#E9BF99" d="M13 9h1v1h-1zM13 8h1v1h-1zM13 7h1v1h-1zM13 6h1v1h-1zM13 5h1v1h-1zM13 4h1v1h-1z"/><path fill="#341404" d="M13 3h1v1h-1z"/><path fill="#452724" d="M13 2h1v1h-1z"/><path fill="#341404" d="M13 1h1v1h-1z"/><path fill="#1B367A" d="M12 21h1v1h-1z"/><path fill="#2B398F" d="M12 20h1v1h-1z"/><path fill="#1B367A" d="M12 19h1v1h-1z"/><path fill="#C21B1B" d="M12 18h1v1h-1z"/><path fill="#EC2324" d="M12 17h1v1h-1z"/><path fill="#C21B1B" d="M12 16h1v1h-1z"/><path fill="#BF2026" d="M12 15h1v1h-1z"/><path fill="#EC2324" d="M12 14h1v1h-1z"/><path fill="#C21B1B" d="M12 13h1v1h-1z"/><path fill="#A31725" d="M12 12h1v1h-1z"/><path fill="#EAAC82" d="M12 10h1v1h-1z"/><path fill="#E9BF99" d="M12 9h1v1h-1zM12 8h1v1h-1zM12 7h1v1h-1z"/><path fill="#232020" d="M12 6h1v1h-1z"/><path fill="#fff" d="M12 5h1v1h-1z"/><path fill="#E9BF99" d="M12 4h1v1h-1z"/><path fill="#341404" d="M12 3h1v1h-1z"/><path fill="#452724" d="M12 2h1v1h-1zM12 1h1v1h-1z"/><path fill="#341404" d="M12 0h1v1h-1z"/><path fill="#1B367A" d="M11 21h1v1h-1z"/><path fill="#2B398F" d="M11 20h1v1h-1z"/><path fill="#1B367A" d="M11 19h1v1h-1z"/><path fill="#C21B1B" d="M11 18h1v1h-1z"/><path fill="#CE202A" d="M11 17h1v1h-1z"/><path fill="#C21B1B" d="M11 16h1v1h-1z"/><path fill="#CE202A" d="M11 15h1v1h-1zM11 14h1v1h-1z"/><path fill="#BF2026" d="M11 13h1v1h-1z"/><path fill="#D6A783" d="M11 12h1v1h-1z"/><path fill="#EAAC82" d="M11 11h1v1h-1z"/><path fill="#E9BF99" d="M11 10h1v1h-1zM11 9h1v1h-1zM11 8h1v1h-1zM11 7h1v1h-1zM11 6h1v1h-1zM11 5h1v1h-1zM11 4h1v1h-1z"/><path fill="#341404" d="M11 3h1v1h-1z"/><path fill="#3F1C04" d="M11 2h1v1h-1z"/><path fill="#452724" d="M11 1h1v1h-1z"/><path fill="#341404" d="M11 0h1v1h-1z"/><path fill="#1B367A" d="M10 21h1v1h-1z"/><path fill="#2B398F" d="M10 20h1v1h-1z"/><path fill="#1B367A" d="M10 19h1v1h-1z"/><path fill="#C21B1B" d="M10 18h1v1h-1z"/><path fill="#BF2026" d="M10 17h1v1h-1z"/><path fill="#C21B1B" d="M10 16h1v1h-1z"/><path fill="#EC2324" d="M10 15h1v1h-1z"/><path fill="#A31725" d="M10 14h1v1h-1z"/><path fill="#D6A783" d="M10 13h1v1h-1zM10 12h1v1h-1z"/><path fill="#E9BF99" d="M10 11h1v1h-1zM10 10h1v1h-1zM10 9h1v1h-1zM10 8h1v1h-1zM10 7h1v1h-1zM10 6h1v1h-1zM10 5h1v1h-1z"/><path fill="#EAAC82" d="M10 4h1v1h-1z"/><path fill="#341404" d="M10 3h1v1h-1z"/><path fill="#452724" d="M10 2h1v1h-1zM10 1h1v1h-1z"/><path fill="#341404" d="M10 0h1v1h-1z"/><path fill="#1B367A" d="M9 21h1v1h-1z"/><path fill="#2B398F" d="M9 20h1v1h-1z"/><path fill="#1B367A" d="M9 19h1v1h-1z"/><path fill="#C21B1B" d="M9 18h1v1h-1z"/><path fill="#CE202A" d="M9 17h1v1h-1zM9 16h1v1h-1zM9 15h1v1h-1z"/><path fill="#C21B1B" d="M9 14h1v1h-1z"/><path fill="#BF2026" d="M9 13h1v1h-1z"/><path fill="#D6A783" d="M9 12h1v1h-1z"/><path fill="#E9BF99" d="M9 11h1v1h-1zM9 10h1v1h-1zM9 9h1v1h-1zM9 8h1v1h-1zM9 7h1v1h-1zM9 6h1v1h-1z"/><path fill="#EAAC82" d="M9 5h1v1h-1z"/><path fill="#341404" d="M9 4h1v1h-1zM9 3h1v1h-1z"/><path fill="#3F1C04" d="M9 2h1v1h-1zM9 1h1v1h-1z"/><path fill="#341404" d="M9 0h1v1h-1z"/><path fill="#1B367A" d="M8 22h1v1h-1z"/><path fill="#2B398F" d="M8 21h1v1h-1zM8 20h1v1h-1z"/><path fill="#1B367A" d="M8 19h1v1h-1z"/><path fill="#C21B1B" d="M8 18h1v1h-1z"/><path fill="#EC2324" d="M8 17h1v1h-1z"/><path fill="#C21B1B" d="M8 16h1v1h-1z"/><path fill="#BF2026" d="M8 15h1v1h-1z"/><path fill="#EC2324" d="M8 14h1v1h-1z"/><path fill="#C21B1B" d="M8 13h1v1h-1z"/><path fill="#BF2026" d="M8 12h1v1h-1z"/><path fill="#D6A783" d="M8 11h1v1h-1z"/><path fill="#E9BF99" d="M8 10h1v1h-1zM8 9h1v1h-1zM8 8h1v1h-1z"/><path fill="#EAAC82" d="M8 7h1v1h-1z"/><path fill="#341404" d="M8 6h1v1h-1zM8 5h1v1h-1zM8 4h1v1h-1z"/><path fill="#3F1C04" d="M8 3h1v1h-1zM8 2h1v1h-1z"/><path fill="#341404" d="M8 1h1v1h-1z"/><path fill="#30419D" d="M7 23h1v1h-1z"/><path fill="#2B398F" d="M7 22h1v1h-1z"/><path fill="#1B367A" d="M7 21h1v1h-1zM7 20h1v1h-1z"/><path fill="#122974" d="M7 19h1v1h-1z"/><path fill="#C21B1B" d="M7 18h1v1h-1z"/><path fill="#CE202A" d="M7 17h1v1h-1z"/><path fill="#C21B1B" d="M7 16h1v1h-1z"/><path fill="#CE202A" d="M7 15h1v1h-1zM7 14h1v1h-1zM7 13h1v1h-1z"/><path fill="#C21B1B" d="M7 12h1v1h-1z"/><path fill="#341404" d="M7 9h1v1h-1z"/><path fill="#E9BF99" d="M7 8h1v1h-1zM7 7h1v1h-1zM7 6h1v1h-1z"/><path fill="#341404" d="M7 5h1v1h-1z"/><path fill="#3F1C04" d="M7 4h1v1h-1z"/><path fill="#341404" d="M7 3h1v1h-1z"/><path fill="#3F1C04" d="M7 2h1v1h-1z"/><path fill="#341404" d="M7 1h1v1h-1z"/><path fill="#30419D" d="M6 24h1v1h-1z"/><path fill="#2B398F" d="M6 23h1v1h-1z"/><path fill="#1B367A" d="M6 22h1v1h-1z"/><path fill="#122974" d="M6 21h1v1h-1zM6 20h1v1h-1zM6 19h1v1h-1z"/><path fill="#A31725" d="M6 18h1v1h-1zM6 17h1v1h-1zM6 16h1v1h-1z"/><path fill="#C21B1B" d="M6 15h1v1h-1z"/><path fill="#BF2026" d="M6 14h1v1h-1z"/><path fill="#EC2324" d="M6 13h1v1h-1z"/><path fill="#A31725" d="M6 12h1v1h-1z"/><path fill="#341404" d="M6 8h1v1h-1z"/><path fill="#E9BF99" d="M6 7h1v1h-1z"/><path fill="#EAAC82" d="M6 6h1v1h-1z"/><path fill="#341404" d="M6 5h1v1h-1zM6 4h1v1h-1z"/><path fill="#3F1C04" d="M6 3h1v1h-1z"/><path fill="#341404" d="M6 2h1v1h-1z"/><path fill="#122974" d="M5 25h1v1h-1z"/><path fill="#2B398F" d="M5 24h1v1h-1zM5 23h1v1h-1z"/><path fill="#122974" d="M5 22h1v1h-1z"/><path fill="#EC2324" d="M5 15h1v1h-1z"/><path fill="#CE202A" d="M5 14h1v1h-1z"/><path fill="#A31725" d="M5 13h1v1h-1z"/><path fill="#341404" d="M5 7h1v1h-1zM5 6h1v1h-1zM5 5h1v1h-1z"/><path fill="#3F1C04" d="M5 4h1v1h-1z"/><path fill="#341404" d="M5 3h1v1h-1z"/><path fill="#fff" d="M4 27h1v1h-1z"/><path fill="#122974" d="M4 25h1v1h-1z"/><path fill="#1B367A" d="M4 24h1v1h-1z"/><path fill="#122974" d="M4 23h1v1h-1z"/><path fill="#A31725" d="M4 16h1v1h-1z"/><path fill="#C21B1B" d="M4 15h1v1h-1z"/><path fill="#A31725" d="M4 14h1v1h-1z"/><path fill="#fff" d="M3 27h1v1h-1z"/><path d="M3 26h1v1h-1zM3 25h1v1h-1zM3 24h1v1h-1zM3 23h1v1h-1z"/><path fill="#EAAC82" d="M3 17h1v1h-1z"/><path fill="#E9BF99" d="M3 16h1v1h-1z"/><path fill="#A31725" d="M3 15h1v1h-1z"/><path fill="#fff" d="M2 27h1v1h-1z"/><path d="M2 26h1v1h-1zM2 25h1v1h-1zM2 24h1v1h-1zM2 23h1v1h-1z"/><path fill="#EAAC82" d="M2 18h1v1h-1z"/><path fill="#E9BF99" d="M2 17h1v1h-1z"/><path fill="#D6A783" d="M2 16h1v1h-1z"/><path fill="#fff" d="M1 26h1v1h-1zM1 25h1v1h-1zM1 24h1v1h-1z"/><path fill="#EAAC82" d="M1 19h1v1h-1z"/><path fill="#E9BF99" d="M1 18h1v1h-1z"/><path fill="#D6A783" d="M1 17h1v1h-1zM0 19h1v1h-1zM0 18h1v1h-1z"/></g></svg>