<svg xmlns="http://www.w3.org/2000/svg" width="128" height="128" viewBox="0 0 128 128"><title>bonafide-bangers</title><path d="M64,126.06A61.09,61.09,0,1,1,125.09,65,61.16,61.16,0,0,1,64,126.06Z" transform="translate(0 -0.97)" fill="#fff"/><path d="M64,6.79A58.18,58.18,0,1,1,5.82,65,58.25,58.25,0,0,1,64,6.79M64,1a64,64,0,1,0,64,64A64,64,0,0,0,64,1h0Z" transform="translate(0 -0.97)"/><path d="M80,78.06A29.09,29.09,0,1,1,109.09,49,29.12,29.12,0,0,1,80,78.06Z" transform="translate(0 -0.97)" fill="#6a36f7"/><path d="M80,22.79A26.18,26.18,0,1,1,53.82,49,26.21,26.21,0,0,1,80,22.79M80,17a32,32,0,1,0,32,32A32,32,0,0,0,80,17h0Z" transform="translate(0 -0.97)"/><circle cx="81.45" cy="46.55" r="11.64"/></svg>