<svg baseProfile="basic" xmlns="http://www.w3.org/2000/svg" width="128" height="128" viewBox="0 0 128 128"><path fill="#fff" d="M126 118.6h-46.2c-1.3-1.4-2.9-3.3-4.9-5.5-2-2.3-3.7-4.3-5.1-6.1-5.6 5.1-11.1 8.8-16.6 11.1-5.5 2.2-11.4 3.3-17.7 3.3-9.8 0-17.8-2.7-24.1-7.9-6.3-5.3-9.4-12.2-9.4-20.7 0-4.2.6-7.9 1.7-10.9s2.9-6.1 5.5-9.1c2.4-2.9 5.4-5.6 9-7.9 3.6-2.3 7.6-4.5 12-6.6-4.7-6-8-11.1-9.9-15.3-1.9-4.2-2.8-8.5-2.8-12.9 0-7.6 3.1-13.8 9.4-18.7s13.8-7.4 22.6-7.4c8.2 0 14.8 1.9 19.9 5.8 5.1 3.9 7.6 9 7.6 15.4 0 5.6-1.5 10.5-4.6 14.9-3 4.4-8.1 8.7-15.2 12.9 5.7 7.3 10.1 12.9 13.2 16.6 3.1 3.7 7.3 8.6 12.5 14.6 3.3-4.9 5.8-9.4 7.4-13.5 1.7-4.1 2.5-7.5 2.5-10.3 0-1.6-1.2-2.8-3.5-3.8s-5.6-1.9-9.9-2.7v-6h44v6c-4.8.4-8.3 1-10.6 1.7-2.3.7-4.5 2.2-6.7 4.5-.9.9-2.1 2.6-3.5 5s-2.7 4.7-4 6.9c-1.5 2.7-3.1 5.5-4.9 8.4-1.7 2.9-3.8 6-6.3 9.2 4.8 5.7 8.8 9.9 11.9 12.7 3.1 2.8 5.7 4.7 7.7 5.8 2.3 1.2 5.1 2.2 8.6 2.9 3.5.7 6.9 1.2 10.3 1.4v6.2zm-60.4-16.7c-4.4-5.3-9.5-11.5-15.4-18.5-5.8-7-11.3-13.7-16.3-20.1-2.8 2.7-4.8 5.9-6 9.6-1.2 3.6-1.8 7.3-1.8 11 0 7 2.2 12.7 6.7 17.1 4.5 4.4 10.1 6.6 17 6.6 3.2 0 6-.4 8.3-1.2 2.3-.9 4.8-2.4 7.5-4.5zm-.5-75.4c0-4.6-1.1-8.2-3.3-10.9-2.2-2.6-5.1-4-8.7-4-3.4 0-6.2 1.1-8.3 3.3-2.1 2.2-3.1 5-3.1 8.5 0 3 1 6.5 2.9 10.3 1.9 3.8 4.9 8.5 9 14 4-2.8 6.9-6 8.8-9.7 1.7-3.6 2.7-7.5 2.7-11.5z"/></svg>