<svg xmlns="http://www.w3.org/2000/svg" width="128" height="128" viewBox="0 0 128 128"><title>characters</title><path d="M126,118.6H79.8c-1.3-1.4-2.9-3.3-4.9-5.5s-3.7-4.3-5.1-6.1a58.71,58.71,0,0,1-16.6,11.1,47.21,47.21,0,0,1-17.7,3.3c-9.8,0-17.8-2.7-24.1-7.9S2,101.3,2,92.8A32,32,0,0,1,3.7,81.9a29.51,29.51,0,0,1,5.5-9.1,38.67,38.67,0,0,1,9-7.9,111.47,111.47,0,0,1,12-6.6q-7.05-9-9.9-15.3a30.94,30.94,0,0,1-2.8-12.9c0-7.6,3.1-13.8,9.4-18.7A35.68,35.68,0,0,1,49.5,4c8.2,0,14.8,1.9,19.9,5.8A18.37,18.37,0,0,1,77,25.2a25.06,25.06,0,0,1-4.6,14.9c-3,4.4-8.1,8.7-15.2,12.9,5.7,7.3,10.1,12.9,13.2,16.6s7.3,8.6,12.5,14.6a71.24,71.24,0,0,0,7.4-13.5,27.71,27.71,0,0,0,2.5-10.3c0-1.6-1.2-2.8-3.5-3.8a48,48,0,0,0-9.9-2.7v-6h44v6a54.06,54.06,0,0,0-10.6,1.7,15.86,15.86,0,0,0-6.7,4.5,26.69,26.69,0,0,0-3.5,5c-1.4,2.4-2.7,4.7-4,6.9-1.5,2.7-3.1,5.5-4.9,8.4a84.38,84.38,0,0,1-6.3,9.2,133.44,133.44,0,0,0,11.9,12.7,43.67,43.67,0,0,0,7.7,5.8,32,32,0,0,0,8.6,2.9,74.81,74.81,0,0,0,10.3,1.4v6.2H126ZM65.6,101.9c-4.4-5.3-9.5-11.5-15.4-18.5S38.9,69.7,33.9,63.3a23,23,0,0,0-6,9.6,34.72,34.72,0,0,0-1.8,11c0,7,2.2,12.7,6.7,17.1s10.1,6.6,17,6.6a25.52,25.52,0,0,0,8.3-1.2A30.92,30.92,0,0,0,65.6,101.9ZM65.1,26.5c0-4.6-1.1-8.2-3.3-10.9a10.92,10.92,0,0,0-8.7-4,11,11,0,0,0-8.3,3.3,11.72,11.72,0,0,0-3.1,8.5,23.79,23.79,0,0,0,2.9,10.3,97.94,97.94,0,0,0,9,14A26.83,26.83,0,0,0,62.4,38,27,27,0,0,0,65.1,26.5Z"/></svg>