<svg xmlns="http://www.w3.org/2000/svg" viewBox="0 0 44 44" enable-background="new 0 0 44 44"><path d="M40 44h-36c-2.2 0-4-1.8-4-4v-36c0-2.2 1.8-4 4-4h36c2.2 0 4 1.8 4 4v36c0 2.2-1.8 4-4 4z"/><g fill="#fff"><path d="M15.7 22.9c.5 0 .8-.4.9-1l.1-3.8 1.3-1.4-.6 10.5-2 5.1c-.1.2-.1.5-.1.7.1 1 .6 1.4 1.6 1.4.6-.1 1-.4 1.2-1l2.1-5.4c.1-.3.2-.5.1-.7l.2-3.4 3.3 2.4 1.9 4.4c.3.7.8 1 1.5 1 1-.1 1.4-.7 1.3-1.6v-.30000000000000004l-2.1-4.8c-.1-.2-.2-.4-.3-.5l-4-3.3.3-4.4 1.1 1.4.3.3 3.6 1.7c1.3.6 1.9-1.3.8-1.8l-3.2-1.6-2.8-3.9c-.6-.6-1.2-.8-1.9-.8-.6 0-1.1.3-1.4.7l-3.8 4.2c-.1.2-.2.4-.2.5 0 0-.2 4.1-.3 4.4 0 .7.5 1 1.1 1zM37.3 30.6c-.1-.3-.4-.6-.7-.5-2.2.8-6.4 2-7 2-.7 0-1.7.1-2.9.2l-1.1.1-1.6.1h-.3c-1.9.1-2.1.2-3 1.5-.6.9-2 1-2.5 1-1.4.1-.4 0-.5 0h-1.3l-2.3.1c-1.6 0-6.2.4-6.8.4-.3 0-.6.3-.6.6s.3.6.6.6c0 0 9.9-.5 10.4-.5h.5c1.6-.1 2.9-.4 3.5-1.4.6-1 1.1-1 2.1-1.1l3-.2c1.1-.1 2.2-.2 2.9-.2 1 0 7.1-2 7.1-2 .3 0 .5-.3.5-.7z"/><circle cx="21.7" cy="9.4" r="2.2"/></g></svg>