<svg baseProfile="basic" xmlns="http://www.w3.org/2000/svg" width="128" height="128" viewBox="0 0 128 128"><g><path fill="#FFC092" d="M92 86h6v5h-6z"/><path fill="#F8B085" d="M92 79h6v7h-6z"/><path fill="#EAB080" d="M86 86h6v5h-6z"/><path fill="#FFC092" d="M86 79h6v7h-6z"/><path fill="#F8B085" d="M86 73h6v6h-6z"/><path fill="#383A86" d="M86 18h6v6h-6z"/><path fill="#8D664E" d="M80 122h6v6h-6z"/><path fill="#EAB080" d="M80 79h6v7h-6z"/><path fill="#FFC092" d="M80 73h6v6h-6z"/><path fill="#E9E9E9" d="M80 67h6v6h-6z"/><path fill="#424242" d="M80 37h6v5h-6zM80 30h6v7h-6z"/><path fill="#383A86" d="M80 18h6v6h-6z"/><path fill="#8D664E" d="M74 122h6v6h-6zM74 116h6v6h-6z"/><path fill="#3B90DF" d="M74 110h6v6h-6z"/><path fill="#127BB6" d="M74 104h6v6h-6z"/><path fill="#FFC092" d="M74 98h6v6h-6z"/><path fill="#D4D4D4" d="M74 79h6v7h-6z"/><path fill="#E9E9E9" d="M74 73h6v6h-6z"/><path fill="#fff" d="M74 67h6v6h-6z"/><path fill="#E9E9E9" d="M74 61h6v6h-6z"/><path fill="#CB1E36" d="M74 55h6v6h-6zM74 49h6v6h-6zM74 42h6v7h-6z"/><path fill="#424242" d="M74 37h6v5h-6zM74 30h6v7h-6z"/><path fill="#FFC092" d="M74 24h6v6h-6z"/><path fill="#383A86" d="M74 18h6v6h-6z"/><path fill="#4E5496" d="M74 12h6v6h-6zM74 6h6v6h-6zM74 0h6v6h-6z"/><path fill="#665952" d="M68 122h6v6h-6zM68 116h6v6h-6z"/><path fill="#2A85BF" d="M68 110h6v6h-6zM68 104h6v6h-6z"/><path fill="#3B90DF" d="M68 98h6v6h-6z"/><path fill="#2A85BF" d="M68 91h6v7h-6z"/><path fill="#E9E9E9" d="M68 86h6v5h-6z"/><path fill="#fff" d="M68 79h6v7h-6zM68 73h6v6h-6zM68 67h6v6h-6zM68 61h6v6h-6z"/><path fill="#D29A7D" d="M68 55h6v6h-6z"/><path fill="#F7985E" d="M68 49h6v6h-6z"/><path fill="#CB1E36" d="M68 42h6v7h-6z"/><path fill="#FFC092" d="M68 37h6v5h-6z"/><path fill="#797979" d="M68 30h6v7h-6z"/><path fill="#FFC092" d="M68 24h6v6h-6z"/><path fill="#383A86" d="M68 18h6v6h-6z"/><path fill="#4E5496" d="M68 12h6v6h-6zM68 6h6v6h-6zM68 0h6v6h-6z"/><path fill="#127BB6" d="M62 104h6v6h-6z"/><path fill="#3B90DF" d="M62 98h6v6h-6zM62 91h6v7h-6z"/><path fill="#fff" d="M62 86h6v5h-6zM62 79h6v7h-6zM62 73h6v6h-6zM62 67h6v6h-6z"/><path fill="#FFC092" d="M62 61h6v6h-6z"/><path fill="#CB1E36" d="M62 55h6v6h-6zM62 49h6v6h-6zM62 42h6v7h-6z"/><path fill="#424242" d="M62 37h6v5h-6zM62 30h6v7h-6z"/><path fill="#FFC092" d="M62 24h6v6h-6z"/><path fill="#383A86" d="M62 18h6v6h-6z"/><path fill="#4E5496" d="M62 12h6v6h-6zM62 6h6v6h-6z"/><path fill="#383A86" d="M62 0h6v6h-6z"/><path fill="#3B90DF" d="M56 98h6v6h-6z"/><path fill="#2A85BF" d="M56 91h6v7h-6z"/><path fill="#fff" d="M56 86h6v5h-6zM56 79h6v7h-6zM56 73h6v6h-6zM56 67h6v6h-6z"/><path fill="#FFC092" d="M56 61h6v6h-6zM56 55h6v6h-6z"/><path fill="#D29A7D" d="M56 49h6v6h-6zM56 42h6v7h-6z"/><path fill="#424242" d="M56 37h6v5h-6zM56 30h6v7h-6z"/><path fill="#FFC092" d="M56 24h6v6h-6z"/><path fill="#2A2670" d="M56 18h6v6h-6z"/><path fill="#383A86" d="M56 12h6v6h-6zM56 6h6v6h-6zM56 0h6v6h-6z"/><path fill="#2A2670" d="M50 0h6v6h-6z"/><path fill="#FFC092" d="M50 110h6v6h-6z"/><path fill="#2A85BF" d="M50 104h6v6h-6zM50 98h6v6h-6z"/><path fill="#127BB6" d="M50 91h6v7h-6z"/><path fill="#E9E9E9" d="M50 86h6v5h-6z"/><path fill="#fff" d="M50 79h6v7h-6zM50 73h6v6h-6zM50 67h6v6h-6z"/><path fill="#E9E9E9" d="M50 61h6v6h-6z"/><path fill="#FFC092" d="M50 55h6v6h-6z"/><path fill="#D29A7D" d="M50 49h6v6h-6zM50 42h6v7h-6z"/><path fill="#CB1E36" d="M50 37h6v5h-6zM50 30h6v7h-6zM50 24h6v6h-6z"/><path fill="#2A2670" d="M50 18h6v6h-6z"/><path fill="#383A86" d="M50 12h6v6h-6z"/><path fill="#2A2670" d="M50 6h6v6h-6zM44 6h6v6h-6z"/><path fill="#3B90DF" d="M44 116h6v6h-6z"/><path fill="#2A85BF" d="M44 110h6v6h-6z"/><path fill="#127BB6" d="M44 104h6v6h-6zM38 104h6v6h-6zM44 98h6v6h-6zM44 91h6v7h-6z"/><path fill="#FFC092" d="M44 86h6v5h-6z"/><path fill="#F8B085" d="M44 79h6v7h-6z"/><path fill="#E9E9E9" d="M44 73h6v6h-6z"/><path fill="#fff" d="M44 67h6v6h-6zM44 61h6v6h-6z"/><path fill="#CB1E36" d="M44 55h6v6h-6zM44 49h6v6h-6z"/><path fill="#FFC092" d="M44 42h6v7h-6zM44 37h6v5h-6z"/><path fill="#CB1E36" d="M44 30h6v7h-6zM38 30h6v7h-6zM44 24h6v6h-6z"/><path fill="#2A2670" d="M44 18h6v6h-6zM44 12h6v6h-6z"/><path fill="#2A85BF" d="M38 116h6v6h-6z"/><path fill="#127BB6" d="M38 110h6v6h-6z"/><path fill="#EAB080" d="M38 86h6v5h-6z"/><path fill="#FFC092" d="M38 79h6v7h-6z"/><path fill="#E9E9E9" d="M38 73h6v6h-6z"/><path fill="#fff" d="M38 67h6v6h-6z"/><path fill="#E9E9E9" d="M32 67h6v6h-6zM38 61h6v6h-6z"/><path fill="#CB1E36" d="M38 55h6v6h-6zM38 49h6v6h-6zM38 42h6v7h-6zM38 37h6v5h-6z"/><path fill="#8D664E" d="M32 116h6v6h-6z"/><path fill="#665952" d="M32 110h6v6h-6zM26 110h6v6h-6z"/><path fill="#EAB080" d="M32 79h6v7h-6z"/><path fill="#FFC092" d="M32 73h6v6h-6z"/><path fill="#EAB080" d="M26 73h6v6h-6z"/><path fill="#8D664E" d="M26 122h6v6h-6zM26 116h6v6h-6z"/></g></svg>