<svg xmlns="http://www.w3.org/2000/svg" width="128" height="128" viewBox="0 0 128 128"><title>recipes</title><path d="M115.77,0H11.61A11.62,11.62,0,0,0,0,11.61V116.39A11.62,11.62,0,0,0,11.61,128H115.66c6.81,0,12.33-5.2,12.33-11.61V11.61C128.1,5.2,122.58,0,115.77,0ZM124,11.58V116.39c0,4.2-3.74,7.61-8.33,7.61H64V4h51.77a8.65,8.65,0,0,1,6.16,2.5,7,7,0,0,1,2.07,5v0Z" fill="#1a1c1f"/><rect x="76" y="42" width="40" height="4" fill="#1a1c1f"/><rect x="76" y="62" width="40" height="4" fill="#1a1c1f"/><rect x="76" y="82" width="40" height="4" fill="#1a1c1f"/><rect x="76" y="102" width="40" height="4" fill="#1a1c1f"/><rect x="76" y="22" width="40" height="4" fill="#1a1c1f"/><rect x="76" y="32" width="40" height="4" fill="#1a1c1f"/><rect x="76" y="52" width="40" height="4" fill="#1a1c1f"/><rect x="76" y="72" width="40" height="4" fill="#1a1c1f"/><rect x="76" y="92" width="40" height="4" fill="#1a1c1f"/><path d="M40,36V52H36V36H32V52H28V36H24V55a6,6,0,0,0,6,6V93h8V61a6,6,0,0,0,6-6V36H40Z" fill="#fff"/></svg>