<svg xmlns="http://www.w3.org/2000/svg" width="128" height="128" viewBox="0 0 128 128"><title>sible</title><path d="M64,128a10.71,10.71,0,0,1-10.7-10.7V10.7a10.7,10.7,0,1,1,21.4,0V117.4A10.69,10.69,0,0,1,64,128Z" fill="#7600a8"/><path d="M117.3,74.7H10.7a10.7,10.7,0,0,1,0-21.4H117.4A10.7,10.7,0,1,1,117.3,74.7Z" fill="#db0a5b"/><path d="M101.7,112.4a10.35,10.35,0,0,1-7.5-3.1L18.7,33.8A10.68,10.68,0,0,1,33.8,18.7l75.4,75.4a10.62,10.62,0,0,1,0,15.1A10.46,10.46,0,0,1,101.7,112.4Z" fill="#12df81"/><path d="M26.3,112.4a10.35,10.35,0,0,1-7.5-3.1,10.62,10.62,0,0,1,0-15.1L94.2,18.8a10.68,10.68,0,1,1,15.1,15.1L33.9,109.3A11.38,11.38,0,0,1,26.3,112.4Z" fill="#1376fb"/></svg>