<svg xmlns="http://www.w3.org/2000/svg" width="128" height="128" viewBox="0 0 128 128"><title>svg-guide</title><path d="M12,12H116V116H12V12Z" fill="none" stroke="#6c4bc4" stroke-miterlimit="10" stroke-width="6"/><path d="M3,3H21V21H3V3Z" fill="#fff"/><path d="M18,6V18H6V6H18m6-6H0V24H24V0Z" fill="#6c4bc4"/><path d="M107,3h18V21H107V3Z" fill="#fff"/><path d="M122,6V18H110V6h12m6-6H104V24h24V0Z" fill="#6c4bc4"/><path d="M107,107h18v18H107V107Z" fill="#fff"/><path d="M122,110v12H110V110h12m6-6H104v24h24V104Z" fill="#6c4bc4"/><path d="M3,107H21v18H3V107Z" fill="#fff"/><path d="M18,110v12H6V110H18m6-6H0v24H24V104Z" fill="#6c4bc4"/></svg>