<svg baseProfile="basic" xmlns="http://www.w3.org/2000/svg" width="128" height="128" viewBox="0 0 128 128"><path stroke="#6C4BC4" stroke-width="6" stroke-miterlimit="10" d="M12 12h104v104h-104v-104z" fill="none"/><path fill="#fff" d="M3 3h18v18h-18z"/><path fill="#6C4BC4" d="M18 6v12h-12v-12h12m6-6h-24v24h24v-24z"/><path fill="#fff" d="M107 3h18v18h-18z"/><path fill="#6C4BC4" d="M122 6v12h-12v-12h12m6-6h-24v24h24v-24z"/><path fill="#fff" d="M107 107h18v18h-18z"/><path fill="#6C4BC4" d="M122 110v12h-12v-12h12m6-6h-24v24h24v-24z"/><path fill="#fff" d="M3 107h18v18h-18z"/><path fill="#6C4BC4" d="M18 110v12h-12v-12h12m6-6h-24v24h24v-24z"/></svg>