<svg baseProfile="basic" xmlns="http://www.w3.org/2000/svg" width="128" height="128" viewBox="0 0 128 128"><path fill="#00D872" d="M116.4 0h-104.8c-6.4 0-11.6 5.2-11.6 11.6v104.7c0 6.4 5.2 11.6 11.6 11.6h104.7c6.4 0 11.6-5.2 11.6-11.6v-104.7c.1-6.4-5.1-11.6-11.5-11.6zm-53.3 20.9c3.5 0 6.4 2.9 6.4 6.4 0 3.5-2.9 6.4-6.4 6.4-3.5 0-6.4-2.9-6.4-6.4 0-3.5 2.9-6.4 6.4-6.4zm-19.8 30c0-.3.3-.9.6-1.5l11.1-12.2c.9-1.2 2.3-2 4.1-2 2 0 3.8.6 5.5 2.3l8.1 11.3 9.3 4.7c3.2 1.5 1.5 7-2.3 5.2l-10.5-4.9-.9-.9-3.2-4.1-.9 12.8 11.6 9.6c.3.3.6.9.9 1.5l6.2 14v.9c0 2.6-.9 4.4-3.8 4.7-2 0-3.5-.9-4.4-2.9l-5.5-12.8-9.6-7-.6 9.9c.3.6 0 1.2-.3 2l-6.1 15.7c-.6 1.7-1.7 2.6-3.5 2.9-2.9 0-4.4-1.2-4.7-4.1 0-.6 0-1.5.3-2l5.8-14.8 1.7-30.5-3.8 4.1-.3 11.1c-.3 1.7-1.2 2.9-2.6 2.9-1.7 0-3.2-.9-3.2-2.9.5-1.1 1-13 1-13zm63.8 40.2s-17.7 5.8-20.7 5.8c-2 0-5.2.3-8.4.6l-8.8.5c-2.9.3-4.4.1-6.1 3-1.7 2.9-5.5 3.9-10.2 3.9h-1.5c-1.5 0-30.3 1.6-30.3 1.6-.9 0-1.7-.8-1.7-1.7 0-.9.9-1.7 1.7-1.7 1.7 0 15.1-1.1 19.8-1.1l6.7-.2h3.8c.3 0-2.6.2 1.5-.1 1.5 0 5.5-.1 7.3-2.7 2.6-3.8 3.2-4.2 8.7-4.2h.9l4.7-.5 3.2-.4c3.5-.3 6.4-.6 8.4-.6 1.7 0 14-3.5 20.4-5.8.9-.3 1.7.6 2 1.4 0 1.3-.6 2.2-1.4 2.2z"/></svg>