<svg xmlns="http://www.w3.org/2000/svg" width="128" height="128" viewBox="0 0 128 128"><title>walk-guide</title><path d="M116.4,0H11.6A11.61,11.61,0,0,0,0,11.6V116.3a11.61,11.61,0,0,0,11.6,11.6H116.3a11.61,11.61,0,0,0,11.6-11.6V11.6A11.46,11.46,0,0,0,116.4,0ZM63.1,20.9a6.4,6.4,0,1,1-6.4,6.4A6.44,6.44,0,0,1,63.1,20.9Zm-19.8,30a5.07,5.07,0,0,1,.6-1.5L55,37.2a5,5,0,0,1,4.1-2,7.34,7.34,0,0,1,5.5,2.3l8.1,11.3L82,53.5c3.2,1.5,1.5,7-2.3,5.2L69.2,53.8l-0.9-.9-3.2-4.1L64.2,61.6l11.6,9.6a6.56,6.56,0,0,1,.9,1.5l6.2,14v0.9c0,2.6-.9,4.4-3.8,4.7a4.49,4.49,0,0,1-4.4-2.9L69.2,76.6l-9.6-7L59,79.5a2.5,2.5,0,0,1-.3,2L52.6,97.2a4.08,4.08,0,0,1-3.5,2.9c-2.9,0-4.4-1.2-4.7-4.1a4.43,4.43,0,0,1,.3-2l5.8-14.8,1.7-30.5-3.8,4.1L48.1,63.9c-0.3,1.7-1.2,2.9-2.6,2.9-1.7,0-3.2-.9-3.2-2.9,0.5-1.1,1-13,1-13h0Zm63.8,40.2s-17.7,5.8-20.7,5.8c-2,0-5.2.3-8.4,0.6l-8.8.5c-2.9.3-4.4,0.1-6.1,3s-5.5,3.9-10.2,3.9H51.4c-1.5,0-30.3,1.6-30.3,1.6a1.75,1.75,0,0,1-1.7-1.7,1.83,1.83,0,0,1,1.7-1.7c1.7,0,15.1-1.1,19.8-1.1l6.7-.2h3.8c0.3,0-2.6.2,1.5-.1,1.5,0,5.5-.1,7.3-2.7,2.6-3.8,3.2-4.2,8.7-4.2h0.9l4.7-.5,3.2-.4c3.5-.3,6.4-0.6,8.4-0.6,1.7,0,14-3.5,20.4-5.8,0.9-.3,1.7.6,2,1.4,0,1.3-.6,2.2-1.4,2.2h0Z" fill="#00d872"/></svg>